<?xml version="1.0" encoding="utf-8"?>
<!-- Generator: Adobe Illustrator 24.1.3, SVG Export Plug-In . SVG Version: 6.00 Build 0)  -->
<svg version="1.1" id="Calque_1" xmlns="http://www.w3.org/2000/svg" xmlns:xlink="http://www.w3.org/1999/xlink" x="0px" y="0px"
	 viewBox="0 0 900 900" style="enable-background:new 0 0 900 900;" xml:space="preserve">
<style type="text/css">
	.st0{fill:#685546;}
	.st1{fill:#80388D;}
	.st2{fill:#BEBD00;}
	.st3{fill:#E71E6C;}
	.st4{fill:#FBE800;}
	.st5{fill:#F18626;}
	.st6{fill:#0094AA;}
	.st7{fill:#263239;}
</style>
<g>
	<g>
		<path class="st0" d="M603.6,435.8c0,1-0.1,1.9-0.2,3c-3.2,45.5-41.4,81.1-87,81.1c-23.4,0-45.3-9.1-61.8-25.7l-2.5-2.5l-2.5,2.5
			c-16.5,16.6-38.5,25.7-61.8,25.7c-45.4,0-83.6-35.5-87-81c-0.1-0.9-0.3-2-0.3-3.2V254.4c0-12.7,10.3-23,23-23
			c12.7,0,23,10.3,23,23v178.2c0,22.8,18.5,41.4,41.3,41.4c21.6,0,39.4-16.7,41.2-37.8h0.2v-182c0-12.7,10.3-23,23-23
			c12.7,0,23,10.3,23,23V433c0.2,22.6,18.8,40.9,41.3,40.9c22.5,0,41-18.3,41.3-40.8V254.4c0-12.7,10.3-23,23-23
			c12.7,0,23,10.3,23,23V435.8z"/>
	</g>
	<path class="st1" d="M549.6,597.1c-89.2,36.5-195,20.2-269.2-49.1l-16.5,18.8c-3.9,3.9-27.2,0.7-60.9-6.5
		c7.6,9.6,15.8,19,24.7,27.9c104.7,104.7,264.8,121.2,387,49.5c-36.4-10.5-65.1-19.2-65.1-19.2V597.1z"/>
	<path class="st2" d="M660.5,508.4l68.4,14.6c19.1-32.9,31.8-68.4,38.2-104.9c-19.6-7.4-41.2-15.9-62.5-24.4
		C699.6,434.1,684.9,473.6,660.5,508.4"/>
	<path class="st3" d="M632.4,541.9c-24.4,24.4-52.7,42.8-82.8,55.2v21.5c0,0,28.7,8.7,65.1,19.2c22.9-13.4,44.4-29.9,64-49.5
		c20-20,36.7-41.9,50.2-65.3l-68.4-14.6C652.2,520.1,642.9,531.4,632.4,541.9"/>
	<path class="st4" d="M263.9,566.9l16.5-18.8c-2.2-2-4.3-4-6.4-6.1c-13.6-13.6-25.3-28.4-35.1-44L175.3,519
		c8,14.3,17.3,28.1,27.7,41.3C236.7,567.6,260,570.7,263.9,566.9"/>
	<path class="st4" d="M706.3,354.1l16.4-6.3l49.1,7.7c-0.6-25.6-4.2-51.1-10.9-75.9l-55.2,63.2C706,346.5,706.2,350.3,706.3,354.1"
		/>
	<path class="st3" d="M632.4,183.4c10,10,18.9,20.6,26.8,31.6l83.1,13c-15.3-32.9-36.5-63.8-63.6-90.9c-7.1-7.1-14.5-13.8-22.1-20.1
		l-43,49.3C620,171.7,626.3,177.4,632.4,183.4"/>
	<path class="st2" d="M706.3,354.1c0.4,13.2-0.1,26.4-1.7,39.6c21.2,8.5,42.8,17,62.5,24.4c3.6-20.7,5.2-41.7,4.7-62.6l-49.1-7.7
		L706.3,354.1z"/>
	<path class="st5" d="M705.7,342.7l55.2-63.2c-4.7-17.5-10.8-34.8-18.6-51.4l-83.1-13C686.7,253.4,702.1,297.7,705.7,342.7"/>
	<path class="st4" d="M557.3,131.6c19.8,8.9,38.8,20.5,56.2,34.8l43-49.3c-11.7-9.7-23.9-18.4-36.6-26.2L554,108.1L557.3,131.6z"/>
	<g>
		<path class="st6" d="M210.8,482.5c-6.4,1-10.1,1.4-15.3,1.9c-7.9,0.9-18.6,1.3-21.7,1l-3.9-9.2c2-2.4,9.8-9.7,16-14.7
			c4.1-3.3,6.9-5.7,12.1-9.5l0.3-0.1l3.4,8.2c-1.8,1.3-4.1,2.9-6.5,4.6l4.8,11.4c2.9-0.4,5.7-0.9,7.9-1.3l3.1,7.5L210.8,482.5z
			 M189.4,469.1c-5.1,3.9-9.8,7.6-11.5,9.4c2.4,0,8.4-0.6,14.8-1.4L189.4,469.1z"/>
		<path class="st6" d="M189.9,450.3l-17.5,4.9l-2.2-7.9l15.4-4.3c2-0.5,3.1-1.3,2.6-3.2c-0.4-1.4-2-2.9-3.5-4.2l-1.2-1.3l-15.6,4.3
			l-2.2-7.8l25-7l2.2,7.8l-3.8,1.1l1.1,0.9c2.9,2.3,4.8,4.1,5.7,7.3C197.1,445.8,194.7,449,189.9,450.3z"/>
		<path class="st6" d="M191.1,414.9l-0.9-5.9c-0.8-5.3-2.4-7.9-7.7-7.1l-0.1,0l1.2,1.7c1.3,1.8,2.6,3.7,3.1,6.5
			c0.9,5.5-1.6,9.1-7.1,9.9l-3.3,0.5c-7.7,1.2-13.4-3.9-14.6-11.6l-1.8-11.7l22-3.4c7.9-1.2,13.3,3.4,14.6,11.2l1.4,8.9L191.1,414.9
			z M177.2,404.2l-0.7-1.2l-8.8,1.4l0.5,2.9c0.6,4,2.8,5.9,6.8,5.3l1.8-0.3c2-0.3,2.8-1.4,2.5-3.4C179,407.3,178,405.4,177.2,404.2z
			"/>
		<path class="st6" d="M158.5,387.5l-0.1-8.2l3.9-0.1l-0.8-0.9c-2.2-2.9-3.6-5-3.7-8.3c-0.1-3.6,1.6-5.9,4.3-6.9l0-0.4l-0.9-1.1
			c-2.8-3.2-3.6-5-3.7-8.3c-0.1-5,3-7.5,8-7.6l18.2-0.3l0.1,8.2l-16,0.3c-2,0-3.3,0.4-3.3,2.5c0,1.5,1.2,3.1,2.3,4.8l0.9,1.3
			l16.2-0.3l0.1,8.2l-16,0.3c-2,0-3.3,0.4-3.3,2.5c0,1.5,1.2,3.1,2.3,4.8l0.9,1.3l16.2-0.3l0.1,8.2L158.5,387.5z"/>
		<path class="st6" d="M174.6,339.7l-5-0.6c-7.4-1-10.3-7.1-9.4-14.5c0.8-6.4,3.5-11.4,10-10.6c5.5,0.7,7,5.1,6.3,10.6l-0.9,7l0.2,0
			c2.8,0.4,3.7-2.3,4-5.1c0.4-2.8,0.4-5.8,0-8.6l0-0.4l6.6,0.9c0.7,3.1,0.5,7.4,0.2,9.7C185.8,335.7,182.2,340.7,174.6,339.7z
			 M171.7,324.5c0.2-1.7-0.2-2.8-1.9-3.1c-2.2-0.3-2.7,1.7-2.9,3.9c-0.4,3.1,0.5,5.1,3.6,5.5l0.4,0L171.7,324.5z"/>
		<path class="st6" d="M163.6,305.1l1.9-7.9l3.8,0.9l-0.5-1.3c-1.4-3.4-2.2-5.9-1.4-9.1c1.2-4.9,4.8-6.5,9.7-5.3l17.7,4.3l-1.9,7.9
			l-15.5-3.8c-2-0.5-3.3-0.4-3.8,1.6c-0.4,1.4,0.3,3.5,1,5.4c0,0,0.5,1.7,0.6,1.7l15.7,3.8l-1.9,7.9L163.6,305.1z"/>
		<path class="st6" d="M187.8,276.5l-8.8-3.1l-1.3,3.9l-6.3-2.2l1.3-3.9l-6.4-2.2l2.7-7.7l6.4,2.2l2.2-6.3l6.3,2.2l-2.2,6.3l7,2.4
			c3.5,1.2,5.3,0.7,6.5-2.8l0.9-2.5l6.3,2.2l-1.6,4.6C198.6,275.9,194.1,278.7,187.8,276.5z"/>
		<path class="st6" d="M193.4,259.7l-4.6-2.1c-6.8-3.1-7.8-9.8-4.7-16.6c2.7-5.9,6.7-9.9,12.6-7.2c5.1,2.3,5.2,6.9,2.9,12l-2.9,6.4
			l0.2,0.1c2.5,1.1,4.2-1.2,5.3-3.7c1.1-2.5,2-5.4,2.5-8.2l0.2-0.3l6.1,2.8c-0.2,3.2-1.6,7.2-2.6,9.4
			C205.3,259.2,200.3,262.8,193.4,259.7z M195,244.4c0.7-1.5,0.6-2.8-0.9-3.5c-2-0.9-3,0.9-4,2.9c-1.3,2.9-1,5,1.8,6.3l0.3,0.2
			L195,244.4z"/>
		<path class="st6" d="M207.7,233.6l-4.5-2.6c-6.7-4-7.8-11.5-3.9-18.2l1.9-3.2l-8.3-4.9l4.2-7l30.7,18.1l-4.2,7l-3-1.8l0.1,2.2
			c0.2,2.9,0,5.2-1.4,7.6C216.5,235.3,212.3,236.3,207.7,233.6z M215.5,219.6v-1.7l-8.5-5l-1.5,2.6c-2.1,3.5-1.6,6.4,1.9,8.5
			l3.2,1.9c1.8,1,3,0.7,4.1-1C215.4,223.4,215.5,221.4,215.5,219.6z"/>
		<path class="st6" d="M211.1,177.5l8.3-10c5.2-6.3,10.5-8.6,17.7-2.7c4.4,3.7,4.8,7.6,4.3,11.1c4.7-1,13.1,1,15.1,2.2l0.3,0.2
			l-5.7,6.9c-1.9-0.9-9-2.9-12.3-1.8l-3.2,3.9l8.1,6.8l-5.2,6.3L211.1,177.5z M232.4,180.3c2.9-3.4,2.9-5.8-0.5-8.7
			c-3.4-2.8-5.2-1.9-8,1.5l-2.1,2.6l8.6,7.1L232.4,180.3z"/>
		<path class="st6" d="M250.8,170.1l-3.5-3.6c-5.1-5.4-3.6-12,1.8-17.2c4.7-4.5,9.9-6.7,14.4-2c3.9,4,2.3,8.3-1.7,12.2l-5.1,4.9
			l0.1,0.1c1.9,2,4.3,0.5,6.3-1.5c2-1.9,3.9-4.3,5.4-6.7l0.3-0.3l4.6,4.8c-1.4,2.9-4.2,6.1-5.9,7.7
			C262.1,174,256.1,175.6,250.8,170.1z M258.1,156.4c1.2-1.2,1.6-2.3,0.5-3.5c-1.5-1.6-3.1-0.3-4.8,1.2c-2.3,2.2-2.8,4.3-0.7,6.6
			l0.3,0.3L258.1,156.4z"/>
		<path class="st6" d="M273.8,151.1l-3.2-4.1c-4.8-6.2-3-13.6,3.2-18.4l9.4-7.3l15.9,20.6l-6.5,5l-2.1-2.8l-0.7,2.1
			c-0.9,2.7-1.9,4.8-4.1,6.5C281.4,156,277.1,155.3,273.8,151.1z M286.2,141l0.6-1.6l-6-7.8l-2.4,1.8c-3.2,2.5-3.9,5.3-1.4,8.6
			l2.3,2.9c1.2,1.6,2.5,1.8,4.2,0.5C284.7,144.5,285.6,142.7,286.2,141z"/>
		<path class="st6" d="M289.7,113.6l-3.1,2l-3.6-5.6l10-6.4l19.3,30l-6.9,4.4L289.7,113.6z"/>
		<path class="st6" d="M301.4,98.5l7.1-4l3.3,5.8l-7.1,4L301.4,98.5z M309.4,112.7l-3.2,1.8l-3.3-5.8l10.4-5.8l12.7,22.7l-7.1,4
			L309.4,112.7z"/>
		<path class="st6" d="M328.4,112.9l-4-8.4l-3.7,1.8l-2.9-6l3.7-1.8l-2.9-6.1l7.4-3.5l2.9,6.1l6-2.9l2.9,6l-6,2.9l3.2,6.7
			c1.6,3.3,3.3,4.2,6.6,2.6l2.3-1.1l2.9,6l-4.4,2.1C336.5,120.2,331.3,119,328.4,112.9z"/>
		<path class="st6" d="M353.1,115.1l5.2-1.9c5.2-1.9,7.2-4,5.3-9.3l-0.4-1.2l-1.3,1.4c-1.5,1.6-2.9,3.2-5.6,4.2
			c-5.2,1.9-9.2,0.3-11.1-5l-5-13.6l7.7-2.8l4.5,12.2c0.7,1.9,1.9,2.5,3.8,1.8c1.6-0.6,3-1.8,4.1-2.9l0.9-0.9l-4.9-13.2l7.7-2.8
			l7.7,20.9c2.8,7.5-0.7,13.8-8.2,16.5l-8,2.9L353.1,115.1z"/>
		<path class="st6" d="M389.2,91l-5-25.5l22.6-4.4l1.3,6.9l-14.6,2.8l1.3,6.9l13.1-2.5l1.3,6.9l-13.1,2.6l0.6,3.3
			c0.6,2.9,1.5,3.9,4.4,3.3L413,89l1.3,6.9l-14.6,2.8C393.9,99.9,390.3,96.8,389.2,91z"/>
		<path class="st6" d="M416.4,95.2l7.3-13.5L414.4,70l0-0.4l8.1-0.8l4.8,6.1l3.7-6.9l7.8-0.7l0,0.4l-7,12.9l9.7,12.2l0,0.4l-8.1,0.8
			l-5.2-6.6l-4,7.5l-7.8,0.7L416.4,95.2z"/>
		<path class="st6" d="M444.9,67.1l8.2,0.1l-0.1,3.5l1.9-1.2c2.4-1.6,4.5-2.5,7.3-2.5c5.4,0.1,8.3,3.3,8.2,8.7l-0.1,5.2
			c-0.1,7.8-6.2,12.5-14,12.4l-3.7-0.1l-0.2,9l-8.2-0.1L444.9,67.1z M455.7,86.6c4,0.1,6.3-1.8,6.4-5.8l0.1-3.7c0-2-0.9-3-2.9-3
			c-1.5,0-3.3,0.9-4.9,1.8l-1.5,0.9l-0.2,9.9L455.7,86.6z"/>
		<path class="st6" d="M474.9,83.5l0.6-5c0.9-7.4,7-10.4,14.4-9.5c6.5,0.8,11.4,3.4,10.7,9.9c-0.7,5.5-5,7.1-10.5,6.4l-7-0.8l0,0.2
			c-0.3,2.8,2.4,3.6,5.1,4c2.8,0.3,5.8,0.3,8.6-0.1l0.4,0l-0.8,6.6c-3.1,0.8-7.4,0.6-9.7,0.4C479,94.6,474,91.1,474.9,83.5z
			 M490,80.4c1.7,0.2,2.8-0.2,3-1.9c0.3-2.2-1.7-2.6-4-2.9c-3.1-0.4-5.1,0.5-5.5,3.7l0,0.4L490,80.4z"/>
		<path class="st6" d="M508.8,72.2l8,1.7l-0.6,3.1c1.9-1.9,4.9-2.6,7.4-2l2,0.4l-1.5,6.9l-2.8-0.6c-2.7-0.6-5,0.1-6.5,1.3l-3.4,16.4
			l-8-1.7L508.8,72.2z"/>
		<path class="st6" d="M526.8,92.6l2.6-8.9l-3.9-1.1l1.8-6.4l3.9,1.1l1.9-6.5l7.9,2.3l-1.9,6.5l6.4,1.9l-1.8,6.4l-6.4-1.8l-2.1,7.1
			c-1,3.6-0.4,5.3,3.2,6.3l2.5,0.7l-1.8,6.4l-4.6-1.3C527.9,103.4,524.9,99.1,526.8,92.6z"/>
	</g>
</g>
<g>
	<path class="st7" d="M199,810.8l-7.7-29.2h-0.2l-7.4,29.2h-12.4l-13.8-43.5h12.6l8,29.5h0.2l7.2-29.5h11.6l7.4,29.4h0.2l8-29.4H225
		l-13.7,43.5H199z"/>
	<path class="st7" d="M231.6,779.7c1.1-2.8,2.6-5.2,4.5-7.2c2-2,4.3-3.5,7.1-4.6c2.7-1.1,5.8-1.6,9.3-1.6c3.4,0,6.5,0.5,9.3,1.6
		c2.8,1.1,5.1,2.6,7.1,4.6c2,2,3.5,4.4,4.5,7.2c1.1,2.8,1.6,6,1.6,9.5c0,3.5-0.5,6.6-1.6,9.4c-1.1,2.8-2.6,5.2-4.5,7.2
		c-2,2-4.3,3.5-7.1,4.6c-2.8,1.1-5.9,1.6-9.3,1.6c-3.4,0-6.5-0.5-9.3-1.6c-2.7-1.1-5.1-2.6-7.1-4.6c-2-2-3.5-4.4-4.5-7.2
		c-1.1-2.8-1.6-5.9-1.6-9.4C230,785.6,230.5,782.5,231.6,779.7z M242.4,794.2c0.3,1.7,0.9,3.1,1.7,4.5c0.8,1.3,1.9,2.4,3.2,3.2
		c1.3,0.8,3,1.2,5,1.2c2,0,3.7-0.4,5.1-1.2c1.4-0.8,2.5-1.8,3.3-3.2c0.8-1.3,1.4-2.8,1.7-4.5c0.3-1.7,0.5-3.3,0.5-5.1
		c0-1.7-0.2-3.4-0.5-5.1c-0.3-1.7-0.9-3.2-1.7-4.5c-0.8-1.3-1.9-2.3-3.3-3.2c-1.4-0.8-3.1-1.2-5.1-1.2c-2,0-3.7,0.4-5,1.2
		c-1.3,0.8-2.4,1.9-3.2,3.2c-0.8,1.3-1.4,2.8-1.7,4.5c-0.3,1.7-0.5,3.4-0.5,5.1C241.9,790.9,242.1,792.6,242.4,794.2z"/>
	<path class="st7" d="M295.3,767.3v6.1h0.3c1.5-2.5,3.5-4.4,5.9-5.5c2.4-1.1,4.9-1.7,7.4-1.7c3.2,0,5.8,0.4,7.9,1.3
		c2,0.9,3.7,2.1,4.8,3.6c1.2,1.5,2,3.4,2.5,5.6c0.5,2.2,0.7,4.7,0.7,7.4v26.7h-11.9v-24.6c0-3.6-0.6-6.3-1.7-8
		c-1.1-1.8-3.1-2.7-6-2.7c-3.3,0-5.6,1-7.1,2.9c-1.5,1.9-2.2,5.1-2.2,9.5v22.8H284v-43.5H295.3z"/>
	<path class="st7" d="M366,805.3c-1.4,2.4-3.2,4.1-5.5,5.1c-2.3,1-4.8,1.6-7.7,1.6c-3.3,0-6.1-0.6-8.6-1.9s-4.5-3-6.1-5.1
		c-1.6-2.2-2.8-4.6-3.6-7.4c-0.8-2.8-1.2-5.7-1.2-8.7c0-2.9,0.4-5.7,1.2-8.5c0.8-2.7,2-5.1,3.6-7.2c1.6-2.1,3.6-3.7,6-5
		c2.4-1.3,5.2-1.9,8.4-1.9c2.6,0,5,0.5,7.4,1.6c2.3,1.1,4.2,2.7,5.5,4.8h0.2v-21.9h11.9v60.1h-11.4v-5.6H366z M365.5,783.8
		c-0.3-1.7-0.9-3.1-1.7-4.4c-0.8-1.3-1.9-2.3-3.2-3.1c-1.3-0.8-2.9-1.2-4.9-1.2c-2,0-3.6,0.4-5,1.2c-1.3,0.8-2.4,1.8-3.2,3.1
		c-0.8,1.3-1.4,2.8-1.8,4.4c-0.4,1.7-0.5,3.4-0.5,5.2c0,1.7,0.2,3.4,0.6,5c0.4,1.7,1,3.2,1.9,4.5c0.9,1.3,2,2.4,3.3,3.2
		c1.3,0.8,2.9,1.2,4.8,1.2c2,0,3.6-0.4,4.9-1.2c1.3-0.8,2.4-1.8,3.2-3.2s1.3-2.8,1.7-4.5c0.3-1.7,0.5-3.4,0.5-5.2
		C366,787.2,365.8,785.4,365.5,783.8z"/>
	<path class="st7" d="M400.5,800.4c1.8,1.7,4.4,2.6,7.7,2.6c2.4,0,4.5-0.6,6.2-1.8c1.7-1.2,2.8-2.5,3.2-3.8h10.5
		c-1.7,5.2-4.3,8.9-7.7,11.2s-7.7,3.4-12.6,3.4c-3.4,0-6.5-0.5-9.3-1.6c-2.7-1.1-5.1-2.6-7-4.7c-1.9-2-3.4-4.4-4.4-7.2
		c-1-2.8-1.6-5.9-1.6-9.3c0-3.3,0.5-6.3,1.6-9.1c1.1-2.8,2.6-5.2,4.5-7.3c2-2,4.3-3.7,7-4.8c2.7-1.2,5.7-1.8,9-1.8
		c3.7,0,6.9,0.7,9.7,2.1c2.7,1.4,5,3.4,6.8,5.8c1.8,2.4,3,5.2,3.8,8.2c0.8,3.1,1.1,6.3,0.8,9.7h-31.4
		C397.8,795.9,398.7,798.7,400.5,800.4z M414,777.5c-1.4-1.6-3.6-2.4-6.5-2.4c-1.9,0-3.5,0.3-4.8,1s-2.3,1.4-3,2.4
		c-0.8,1-1.3,2-1.6,3c-0.3,1.1-0.5,2-0.5,2.9H417C416.5,781.4,415.5,779.1,414,777.5z"/>
	<path class="st7" d="M448.6,767.3v8.1h0.2c0.6-1.3,1.3-2.6,2.3-3.7c1-1.1,2-2.1,3.3-2.9c1.2-0.8,2.6-1.4,4-1.9
		c1.4-0.4,2.9-0.7,4.4-0.7c0.8,0,1.7,0.1,2.6,0.4v11.1c-0.6-0.1-1.2-0.2-2-0.3c-0.8-0.1-1.5-0.1-2.3-0.1c-2.2,0-4,0.4-5.6,1.1
		c-1.5,0.7-2.7,1.7-3.7,3s-1.6,2.7-2,4.4c-0.4,1.7-0.6,3.5-0.6,5.5v19.6h-11.9v-43.5H448.6z"/>
	<path class="st7" d="M475.1,777.6h0.2c0.7-2.4,2.2-4.8,4.7-7.2c2.4-2.4,5.9-3.7,10.5-3.8c6.4,0.1,11.2,2.4,14.3,6.7
		c3.1,4.3,4.6,9.6,4.6,16c0,6.7-1.5,12-4.6,16.1c-3.1,4.2-7.8,6.4-14.3,6.4c-3.5,0-6.5-0.8-9.2-2.5c-2.7-1.6-4.8-4.1-6.1-7.6h-0.2
		v24.5h-3v-58.7h3V777.6z M490.5,809.1c5.5-0.1,9.5-2,12.1-5.9c2.4-3.8,3.7-8.5,3.7-13.9c0-5.2-1.2-9.7-3.6-13.7
		c-2.5-4-6.6-6.1-12.2-6.2c-5.5,0.1-9.5,2.2-11.9,6.1c-2.4,3.9-3.6,8.5-3.5,13.9c-0.1,5.3,1,9.8,3.3,13.6
		C480.7,806.9,484.7,809,490.5,809.1z"/>
	<path class="st7" d="M550.2,802.8c-0.1,1.3,0.1,2.5,0.4,3.5c0.3,1.1,1.1,1.7,2.4,1.7c0.6,0,1.3-0.1,2.3-0.2v2.7
		c-0.9,0.2-1.7,0.3-2.5,0.3c-2.4,0-3.9-0.6-4.5-1.9c-0.8-1.1-1.1-2.6-1.1-4.4v-2.3H547c-1,2.6-2.8,4.8-5.5,6.7
		c-2.7,1.9-6.1,2.9-10.2,3c-4.1,0-7.4-0.9-10-2.8c-2.7-1.8-4-4.9-4.1-9.4c0-2.5,0.5-4.7,1.4-6.3c0.9-1.6,2.2-2.8,3.7-3.7
		c1.6-1,3.3-1.6,5.1-2c0.9-0.2,1.8-0.4,2.7-0.6c0.9-0.1,1.7-0.2,2.6-0.2c6.7-0.4,10.9-1.1,12.5-2.3c0.9-0.7,1.5-1.5,1.7-2.6
		c0.2-1,0.2-2.4,0.2-4.1c0-0.5-0.1-1.3-0.4-2.3c-0.3-0.9-0.9-1.8-1.8-2.8c-0.8-0.9-2-1.8-3.5-2.5c-1.5-0.6-3.5-0.9-6-0.9
		c-7.9,0.1-12.2,3.9-12.9,11.5h-3c0.6-9.5,5.9-14.3,15.9-14.3c3.8-0.1,7.2,0.7,10.1,2.3c3,1.6,4.5,4.6,4.6,9V802.8z M547.1,786.3
		c-0.6,0.7-1.5,1.2-2.5,1.5c-1,0.4-2.3,0.7-3.7,0.8c-2.9,0.4-5.9,0.7-9,1c-7.7,0.5-11.5,3.8-11.6,10c0,2.7,1,4.9,2.9,6.6
		c1.8,1.8,4.6,2.7,8.2,2.8c3.6,0,6.4-0.7,8.5-2.1c2.1-1.2,3.7-2.7,4.8-4.5c1-1.7,1.7-3.4,2-5c0.3-1.6,0.4-2.6,0.4-3.2V786.3z"/>
	<path class="st7" d="M565.7,777.2h0.3c0.9-2.9,2.8-5.3,5.8-7.2c2.9-1.9,6.3-2.7,10.2-2.6v3.2c-1.7-0.3-3.5-0.1-5.5,0.4
		c-2.1,0.6-4.1,1.9-6,3.8c-1.5,1.5-2.6,3.2-3.3,5c-0.7,1.8-1.2,4.3-1.4,7.5v23.6h-3v-43.2h3V777.2z"/>
	<path class="st7" d="M602.6,770.4h-9.1v30.2c0,3.4,0.8,5.5,2.4,6.4c1.5,0.9,3.7,1.3,6.7,1.1v2.8c-1.6,0.1-3.1,0.1-4.6-0.2
		c-1.5-0.2-2.8-0.6-4-1.3c-1.1-0.7-2-1.7-2.7-3.1c-0.7-1.4-1-3.3-0.9-5.7v-30.2h-7.7v-2.8h7.7v-13.4h3v13.4h9.1V770.4z"/>
	<path class="st7" d="M610.3,767.6h3v9.3h0.2c1.1-3.3,3.1-5.9,5.8-7.7c2.8-1.7,5.8-2.6,9.1-2.6c3.7,0.1,6.6,0.7,8.6,1.9
		c2.1,1.3,3.5,2.9,4.4,4.8c0.9,1.9,1.5,3.8,1.7,5.7c0.1,2,0.2,3.7,0.2,5.1v26.7h-3v-27.3c0-1.2-0.1-2.6-0.2-4.2
		c-0.2-1.6-0.7-3.1-1.5-4.6c-0.7-1.6-1.9-2.8-3.5-3.8c-1.7-1-3.9-1.5-6.8-1.5c-4.7,0.1-8.3,1.7-11,5c-2.7,3.3-4.1,7.7-4.1,13v23.3
		h-3V767.6z"/>
	<path class="st7" d="M656.4,789.6c-0.1,5.2,1.2,9.7,3.9,13.5c2.5,3.9,6.4,5.9,11.5,6c8.2-0.1,13.2-4.4,15-12.9h3.1
		c-1.9,10.3-7.9,15.5-18.1,15.6c-6.1-0.1-10.7-2.3-13.8-6.5c-3.1-4.2-4.7-9.3-4.6-15.4c-0.1-6.2,1.3-11.6,4.5-16.2
		c3.1-4.7,7.8-7,14-7.1c6.6,0.1,11.4,2.4,14.4,6.8c3,4.4,4.3,9.8,4,16.2H656.4z M687.2,786.8c-0.1-4.7-1.5-8.8-4.1-12.2
		c-2.7-3.4-6.4-5.2-11.3-5.3c-4.7,0.1-8.3,2-10.9,5.5c-2.6,3.5-4.1,7.5-4.5,12H687.2z"/>
	<path class="st7" d="M703.2,777.2h0.3c0.9-2.9,2.8-5.3,5.8-7.2c2.9-1.9,6.3-2.7,10.2-2.6v3.2c-1.7-0.3-3.5-0.1-5.5,0.4
		c-2.1,0.6-4.1,1.9-6,3.8c-1.5,1.5-2.6,3.2-3.3,5c-0.7,1.8-1.2,4.3-1.4,7.5v23.6h-3v-43.2h3V777.2z"/>
	<path class="st7" d="M731.9,759.4c0,2.2-0.4,4.3-1.1,6.3c-0.7,2-2.1,3.5-4.1,4.3v-2.8c0.6-0.3,1.1-0.8,1.5-1.5
		c0.4-0.6,0.6-1.3,0.8-2c0.3-1.6,0.4-3,0.4-4.3h-1.8v-8.6h4.2V759.4z"/>
	<path class="st7" d="M741.5,796.5c0.3,4,1.8,7.1,4.3,9.2c2.6,2.2,5.8,3.4,9.6,3.4c1.4,0,2.9-0.2,4.5-0.5c1.5-0.2,3-0.7,4.3-1.4
		c1.4-0.7,2.4-1.6,3.3-2.9c0.9-1.2,1.3-2.7,1.3-4.4c0-1.9-0.4-3.4-1.1-4.6c-0.8-1.2-1.9-2.1-3.3-2.7c-1.3-0.7-2.8-1.2-4.6-1.6
		c-1.7-0.4-3.5-0.8-5.3-1.1c-1.8-0.4-3.5-0.9-5.2-1.4c-1.7-0.5-3.2-1.2-4.7-2c-1.4-0.9-2.5-2.1-3.3-3.4c-0.8-1.4-1.3-3.2-1.3-5.4
		c0-2.2,0.5-4,1.4-5.5c0.9-1.4,2.1-2.5,3.5-3.4c3.1-1.6,6.4-2.3,10.1-2.3c4.6,0,8.3,1,11.1,3.1c2.8,2.2,4.3,5.7,4.3,10.7h-3
		c-0.1-3.9-1.2-6.8-3.5-8.5c-2.3-1.7-5.3-2.5-8.9-2.5c-3,0-5.7,0.6-8.1,1.8c-1.1,0.7-2.1,1.5-2.8,2.5c-0.8,1.1-1.2,2.4-1.2,4
		c0,1.7,0.4,3.1,1.3,4.1c0.8,1.1,1.8,1.9,3.2,2.6c0.7,0.3,1.4,0.6,2.2,0.8c0.7,0.2,1.5,0.5,2.3,0.8c0.8,0.2,1.7,0.3,2.5,0.5
		c0.8,0.2,1.6,0.5,2.5,0.7c4.3,0.6,7.8,1.8,10.6,3.5c1.3,0.9,2.3,2.1,3.1,3.5c0.7,1.5,1.1,3.4,1.1,5.6c0,2.2-0.5,4.1-1.4,5.6
		c-1,1.6-2.3,2.8-4,3.8c-1.6,0.9-3.3,1.5-5.2,1.9c-2,0.4-3.9,0.6-5.8,0.6c-4.8,0-8.8-1.3-11.9-4c-3.1-2.6-4.8-6.4-5-11.4H741.5z"/>
</g>
</svg>
